<svg width="24" height="24" viewBox="0 0 24 24" fill="none" xmlns="http://www.w3.org/2000/svg">
  <rect width="24" height="24" rx="4" fill="#007ACC"/>
  <path d="M12 4C7.58172 4 4 7.58172 4 12C4 16.4183 7.58172 20 12 20C16.4183 20 20 16.4183 20 12C20 7.58172 16.4183 4 12 4ZM12 18C8.68629 18 6 15.3137 6 12C6 8.68629 8.68629 6 12 6C15.3137 6 18 8.68629 18 12C18 15.3137 15.3137 18 12 18Z" fill="white"/>
  <path d="M12 8C10.3431 8 9 9.34315 9 11C9 12.6569 10.3431 14 12 14C13.6569 14 15 12.6569 15 11C15 9.34315 13.6569 8 12 8ZM12 12C11.4477 12 11 11.5523 11 11C11 10.4477 11.4477 10 12 10C12.5523 10 13 10.4477 13 11C13 11.5523 12.5523 12 12 12Z" fill="white"/>
  <path d="M12 16C11.4477 16 11 15.5523 11 15H13C13 15.5523 12.5523 16 12 16Z" fill="white"/>
</svg>
